<svg width="68" height="51" viewBox="0 0 68 51" fill="none" xmlns="http://www.w3.org/2000/svg">
<path d="M13.418 50.1172C13.2357 50.1172 13.0404 50.0521 12.832 49.9219C12.793 49.9219 12.7734 49.7331 12.7734 49.3555L12.793 46.0938C12.793 42.8646 12.6107 40.0521 12.2461 37.6562C12.0768 36.6536 11.8034 35.5859 11.4258 34.4531C11.0612 33.3203 10.6771 32.3372 10.2734 31.5039C9.86979 30.6706 9.53125 30.1888 9.25781 30.0586C9.11458 30.0586 8.72396 30.5924 8.08594 31.6602C7.44792 32.7279 6.73177 34.056 5.9375 35.6445L4.33594 38.5547C3.60677 39.9089 3.06641 40.8333 2.71484 41.3281C2.49349 41.6406 2.24609 41.875 1.97266 42.0312L1.875 42.0898C1.41927 41.9466 1.19141 41.6471 1.19141 41.1914C1.19141 40.7487 1.40625 40.1367 1.83594 39.3555C2.27865 38.5872 3.09896 37.0117 4.29688 34.6289C5.39062 32.4544 5.9375 31.276 5.9375 31.0938C5.9375 31.0547 5.89193 31.0352 5.80078 31.0352C5.64453 31.0352 5.38411 31.0742 5.01953 31.1523C4.08203 31.3086 3.32682 31.3867 2.75391 31.3867C2.28516 31.3867 1.83594 31.3281 1.40625 31.2109C0.989583 31.0938 0.651042 30.8789 0.390625 30.5664C0.130208 30.2409 0 29.7852 0 29.1992C0 28.5091 0.279948 27.8776 0.839844 27.3047C1.41276 26.7188 2.14844 26.25 3.04688 25.8984C3.95833 25.5469 4.92839 25.3711 5.95703 25.3711C6.39974 25.3711 6.85547 25.4102 7.32422 25.4883C7.55859 25.5404 7.77344 25.5664 7.96875 25.5664C8.24219 25.5664 8.49609 25.4557 8.73047 25.2344C8.97786 25 9.29688 24.5378 9.6875 23.8477C10.1823 22.9622 11.0221 21.3802 12.207 19.1016C14.7721 14.3359 17.3307 9.81771 19.8828 5.54688C20.9766 3.71094 21.6602 2.64323 21.9336 2.34375C22.4154 1.91406 23.3008 1.47135 24.5898 1.01562C25.0977 0.833333 25.4753 0.742188 25.7227 0.742188C25.8138 0.742188 25.8789 0.761719 25.918 0.800781C25.957 0.839844 25.9766 0.94401 25.9766 1.11328C25.9766 1.77734 25.7357 3.22266 25.2539 5.44922C24.7852 7.67578 24.1536 10.319 23.3594 13.3789C22.8906 15.2018 22.5 16.7708 22.1875 18.0859C21.888 19.401 21.7383 20.1432 21.7383 20.3125C21.8685 20.3125 22.4674 20.0586 23.5352 19.5508C24.8893 18.8997 27.4609 17.6172 31.25 15.7031L32.6562 15C34.1797 14.2448 35.1953 13.8672 35.7031 13.8672C36.0286 13.8672 36.1914 14.0039 36.1914 14.2773C36.1914 14.4596 36.1589 14.6549 36.0938 14.8633C36.0026 15.0456 35.2604 15.5469 33.8672 16.3672C32.474 17.1875 30.7552 18.1445 28.7109 19.2383C26.6536 20.306 24.9023 21.2565 23.457 22.0898C22.0117 22.9102 21.1914 23.418 20.9961 23.6133L20.8008 24.2969C18.444 32.9297 16.7643 39.668 15.7617 44.5117C15.4102 46.2695 15.0586 47.6432 14.707 48.6328C14.3685 49.6224 13.9388 50.1172 13.418 50.1172ZM4.10156 29.2383C4.55729 29.2383 5.01302 29.1732 5.46875 29.043C6.3151 28.7826 6.73828 28.5091 6.73828 28.2227C6.73828 28.0013 6.51693 27.832 6.07422 27.7148C5.63151 27.5977 5.14974 27.5391 4.62891 27.5391C4.14714 27.5391 3.71094 27.5977 3.32031 27.7148C2.94271 27.819 2.75391 27.9948 2.75391 28.2422C2.75391 28.9062 3.20312 29.2383 4.10156 29.2383ZM15.2734 36.0938C15.5469 35.3255 15.9896 33.6979 16.6016 31.2109C17.0573 29.3229 17.5521 27.4023 18.0859 25.4492H18.0273C17.6758 25.4492 16.6146 25.8659 14.8438 26.6992C13.0859 27.5195 12.207 28.0208 12.207 28.2031C13.2878 29.7656 14.056 31.3542 14.5117 32.9688C14.9805 34.5703 15.2344 35.612 15.2734 36.0938ZM11.2305 26.2109C11.2956 26.2109 11.6862 26.0286 12.4023 25.6641C13.1185 25.2865 13.9323 24.8568 14.8438 24.375C15.7682 23.8802 16.6081 23.4245 17.3633 23.0078C18.1185 22.5911 18.6068 22.3242 18.8281 22.207L19.4141 19.7266C20.2083 16.4583 20.9049 13.4245 21.5039 10.625C22.1159 7.8125 22.4219 6.20443 22.4219 5.80078C22.4219 5.72266 22.4023 5.68359 22.3633 5.68359C21.9336 5.68359 19.2318 10.3385 14.2578 19.6484C13.0599 21.849 12.2266 23.4115 11.7578 24.3359C11.3021 25.2604 11.0742 25.8333 11.0742 26.0547C11.0742 26.1589 11.1133 26.2109 11.1914 26.2109H11.2305ZM51.8711 48.7109H51.8125C51.3828 48.7109 51.168 48.4896 51.168 48.0469C51.168 47.9688 51.194 47.7474 51.2461 47.3828C51.2982 47.0312 51.5456 46.224 51.9883 44.9609C52.2747 44.1276 52.5872 43.1576 52.9258 42.0508C54.5273 36.6081 56.8516 29.2318 59.8984 19.9219C61.2917 15.612 62.4505 11.7839 63.375 8.4375C64.1172 5.72917 64.4883 4.12109 64.4883 3.61328C64.4883 3.49609 64.4688 3.4375 64.4297 3.4375C64.0781 3.4375 62.9062 4.38802 60.9141 6.28906C58.9349 8.1901 56.8255 10.3906 54.5859 12.8906C52.138 15.651 50.2565 17.5195 48.9414 18.4961C48.2122 19.043 47.6068 19.3164 47.125 19.3164C46.7474 19.3164 46.4479 19.1406 46.2266 18.7891C45.7578 18.0339 45.5234 16.4518 45.5234 14.043V13.8477C45.5234 13.3659 45.4974 12.9622 45.4453 12.6367C45.3932 12.2982 45.3281 12.1289 45.25 12.1289C44.9505 12.1289 44.2799 12.8776 43.2383 14.375C42.2096 15.8594 41.0508 17.7083 39.7617 19.9219C38.4727 22.1224 37.2552 24.362 36.1094 26.6406C35.1589 28.5286 34.3516 29.8633 33.6875 30.6445C33.0234 31.4258 32.3594 31.8164 31.6953 31.8164C31.513 31.8164 31.4219 31.5495 31.4219 31.0156C31.4219 29.8047 31.8776 27.2461 32.7891 23.3398C33.6354 19.7982 34.3385 16.9336 34.8984 14.7461C35.4583 12.5586 35.9271 10.8854 36.3047 9.72656C36.6823 8.56771 37.0143 7.76042 37.3008 7.30469C37.5872 6.83594 37.8932 6.54297 38.2188 6.42578C38.5573 6.30859 38.8242 6.25 39.0195 6.25C39.306 6.25 39.4492 6.43229 39.4492 6.79688C39.4362 7.16146 39.2734 7.75391 38.9609 8.57422C38.8438 8.91276 38.7331 9.25781 38.6289 9.60938C37.5091 13.4635 36.5781 17.1224 35.8359 20.5859C35.5625 21.8229 35.4258 22.5911 35.4258 22.8906C35.4258 22.9297 35.4323 22.9557 35.4453 22.9688L35.4648 22.9883C35.556 22.9883 35.7122 22.832 35.9336 22.5195C36.168 22.207 36.4349 21.7773 36.7344 21.2305C37.8411 19.2643 39.1432 17.194 40.6406 15.0195C42.151 12.832 43.2513 11.4193 43.9414 10.7812C44.2669 10.5208 44.651 10.2734 45.0938 10.0391C45.7969 9.64844 46.3828 9.45312 46.8516 9.45312C47.0078 9.45312 47.1641 9.50521 47.3203 9.60938C47.4896 9.70052 47.6198 10.0716 47.7109 10.7227C47.8151 11.3607 47.9128 12.4023 48.0039 13.8477C48.1211 15.4492 48.2643 16.3477 48.4336 16.543H48.4531C48.5703 16.543 49.0521 16.1263 49.8984 15.293C50.7578 14.4596 51.806 13.3594 53.043 11.9922C55.3867 9.41406 57.6849 7.07031 59.9375 4.96094C62.2031 2.85156 63.9154 1.45833 65.0742 0.78125C65.6211 0.494792 66.0833 0.351562 66.4609 0.351562C66.6172 0.351562 66.8385 0.403646 67.125 0.507812C67.4115 0.611979 67.5547 1.01562 67.5547 1.71875C67.5547 2.23958 67.0729 4.14714 66.1094 7.44141C65.1589 10.7227 64.0781 14.1927 62.8672 17.8516C62.4115 19.2188 61.6172 21.6341 60.4844 25.0977C59.3516 28.5482 58.1862 32.1354 56.9883 35.8594C55.7904 39.5833 54.8594 42.5195 54.1953 44.668C53.7656 46.0352 53.3424 47.0508 52.9258 47.7148C52.5091 48.3789 52.1576 48.7109 51.8711 48.7109Z" fill="black"/>
</svg>
